<?xml version="1.0"?>
<svg xmlns="http://www.w3.org/2000/svg" version="1.1" viewBox="0 0 252 252" width="64px" height="64px">
    <g fill="none" fill-rule="nonzero" stroke="none" stroke-width="1" stroke-linecap="butt" stroke-linejoin="miter"
       stroke-miterlimit="10" stroke-dasharray="" stroke-dashoffset="0" font-family="none"
       font-size="none" style="mix-blend-mode: normal">
        <path d="M0,252v-252h252v252z" fill="none"/>
        <path d="M25.2,252c-13.91758,0 -25.2,-11.28242 -25.2,-25.2v-201.6c0,-13.91758 11.28242,-25.2 25.2,-25.2h201.6c13.91758,0 25.2,11.28242 25.2,25.2v201.6c0,13.91758 -11.28242,25.2 -25.2,25.2zM221.76,246.96c13.91758,0 25.2,-11.28242 25.2,-25.2v-191.52c0,-13.91758 -11.28242,-25.2 -25.2,-25.2h-191.52c-13.91758,0 -25.2,11.28242 -25.2,25.2v191.52c0,13.91758 11.28242,25.2 25.2,25.2z"
              fill="#2c3e50"/>
        <g>
            <g id="surface1">
                <path d="M78.225,78.225h95.55v95.55h-95.55z" fill="#ff9800"/>
                <path d="M59.85,126l66.15,-66.15l66.15,66.15l-66.15,66.15z" fill="#ff9800"/>
                <path d="M85.575,126c0,22.33711 18.08789,40.425 40.425,40.425c22.32275,0 40.425,-18.08789 40.425,-40.425c0,-22.33711 -18.10225,-40.425 -40.425,-40.425c-22.33711,0 -40.425,18.08789 -40.425,40.425"
                      fill="#ffeb3b"/>
            </g>
        </g>
        <path d="M25.2,252c-13.91758,0 -25.2,-11.28242 -25.2,-25.2v-201.6c0,-13.91758 11.28242,-25.2 25.2,-25.2h201.6c13.91758,0 25.2,11.28242 25.2,25.2v201.6c0,13.91758 -11.28242,25.2 -25.2,25.2z"
              fill="none"/>
        <path d="M30.24,246.96c-13.91758,0 -25.2,-11.28242 -25.2,-25.2v-191.52c0,-13.91758 11.28242,-25.2 25.2,-25.2h191.52c13.91758,0 25.2,11.28242 25.2,25.2v191.52c0,13.91758 -11.28242,25.2 -25.2,25.2z"
              fill="none"/>
        <path d="M25.2,252c-13.91758,0 -25.2,-11.28242 -25.2,-25.2v-201.6c0,-13.91758 11.28242,-25.2 25.2,-25.2h201.6c13.91758,0 25.2,11.28242 25.2,25.2v201.6c0,13.91758 -11.28242,25.2 -25.2,25.2z"
              fill="none"/>
        <path d="M30.24,246.96c-13.91758,0 -25.2,-11.28242 -25.2,-25.2v-191.52c0,-13.91758 11.28242,-25.2 25.2,-25.2h191.52c13.91758,0 25.2,11.28242 25.2,25.2v191.52c0,13.91758 -11.28242,25.2 -25.2,25.2z"
              fill="none"/>
    </g>
</svg>
