<?xml version="1.0"?>
<svg xmlns="http://www.w3.org/2000/svg" version="1.1" viewBox="0 0 252 252" width="64px" height="64px">
    <g fill="none" fill-rule="nonzero" stroke="none" stroke-width="1" stroke-linecap="butt" stroke-linejoin="miter"
       stroke-miterlimit="10" stroke-dasharray="" stroke-dashoffset="0" font-family="none"
       font-size="none" style="mix-blend-mode: normal">
        <path d="M0,252v-252h252v252z" fill="none"/>
        <path d="M37.8,252c-20.87636,0 -37.8,-16.92364 -37.8,-37.8v-176.4c0,-20.87636 16.92364,-37.8 37.8,-37.8h176.4c20.87636,0 37.8,16.92364 37.8,37.8v176.4c0,20.87636 -16.92364,37.8 -37.8,37.8zM209.16,246.96c20.87636,0 37.8,-16.92364 37.8,-37.8v-166.32c0,-20.87636 -16.92364,-37.8 -37.8,-37.8h-166.32c-20.87636,0 -37.8,16.92364 -37.8,37.8v166.32c0,20.87636 16.92364,37.8 37.8,37.8z"
              fill="#2c3e50"/>
        <g id="Layer_1">
            <g>
                <g fill="#bcbcbc">
                    <g>
                        <path d="M187.83722,42.25212c0,-0.03938 0,-0.03938 0,-0.07875c-0.43312,0.51187 -0.945,1.02375 -1.37813,1.53563c-1.14187,1.26 -2.205,2.63813 -3.38625,3.89812c-2.0475,2.205 -4.37063,4.095 -6.49688,6.22125c-1.85063,1.85063 -4.29188,4.21313 -4.5675,7.00875c-0.27562,2.6775 2.3625,5.43375 4.13437,7.04812c0.23625,0.23625 0.4725,0.43312 0.74812,0.66938c-0.27562,-1.1025 -0.35437,-2.205 -0.11812,-3.38625c0.90562,-4.05562 2.91375,-8.07187 5.63063,-11.26125c2.00813,-2.32313 5.15813,-4.41 6.41813,-7.245c0.39375,-0.90562 -0.7875,-3.18937 -0.98437,-4.41z"/>
                    </g>
                </g>
                <g fill="#d6e5e5">
                    <g>
                        <path d="M208.11535,72.80712c-0.11812,-1.89 -0.27562,-3.81938 -0.35437,-5.78813c-1.1025,1.33875 -2.32313,2.59875 -3.54375,3.78c-2.91375,2.835 -5.985,6.02438 -9.72563,7.7175c-7.59938,3.34688 -14.84438,-1.65375 -20.39625,-6.65438c-2.48063,-2.24438 -5.27625,-5.07937 -6.06375,-8.46562c-0.7875,-3.42563 0.27563,-6.4575 2.40188,-9.21375c2.24437,-2.91375 5.07937,-5.1975 7.67812,-7.7175c1.29938,-1.26 2.44125,-2.63812 3.66188,-4.01625c0.39375,-0.4725 0.86625,-0.90563 1.29938,-1.37813c-5.23688,0.03937 -10.47375,-0.39375 -15.63188,0.86625c-4.84312,1.18125 -9.68625,3.22875 -13.34812,6.65437c-3.89812,3.58313 -6.57562,8.19 -7.67812,13.3875c-1.33875,6.18187 -0.82688,12.48188 -0.7875,18.78188c0,0.74813 -0.315,1.29938 -0.74812,1.69313c-1.65375,8.54437 -5.70937,16.38 -11.26125,23.11312c-6.73313,8.19 -14.21437,15.86813 -21.61688,23.42813c-4.05562,4.095 -8.505,7.91438 -12.32438,12.24563c-3.03187,3.38625 -5.63063,7.48125 -9.48937,10.04062c-4.21313,2.75625 -8.74125,2.3625 -13.34812,0.86625c-4.21313,-1.33875 -8.07188,-2.835 -12.52125,-2.55938c-7.875,0.51188 -16.695,4.33125 -20.35688,11.77312c-2.28375,4.64625 -2.24437,10.395 -2.0475,15.47438c0.11812,2.91375 0.55125,5.78812 0.70875,8.74125c0.07875,1.575 0.1575,3.15 0.315,4.725c3.34688,-4.725 6.57563,-9.56813 10.8675,-13.46625c4.92188,-4.44938 11.61562,-7.91438 17.955,-3.9375c3.6225,2.28375 6.37875,5.47312 9.01687,8.78063c2.59875,3.26812 5.8275,6.33937 7.79625,10.00125c4.5675,8.46562 -2.6775,16.5375 -6.73312,23.74313c0.82687,-0.03938 1.69313,-0.11813 2.52,-0.19688c6.89063,-0.66938 14.29312,-2.12625 20.35688,-5.63063c2.75625,-1.575 5.55187,-3.6225 6.93,-6.615c1.96875,-4.21312 0.7875,-9.33187 -0.70875,-13.50562c-1.7325,-4.76438 -4.48875,-9.765 -3.89813,-15.00188c0.51188,-4.37063 3.11062,-7.99313 6.02438,-11.14312c8.07188,-8.78063 16.2225,-17.4825 23.97937,-26.49938c4.13438,-4.76437 8.19,-9.6075 12.20625,-14.49c3.3075,-4.01625 6.37875,-8.30813 10.00125,-12.04875c2.95313,-3.07125 6.33937,-5.5125 10.5525,-6.33937c4.92188,-0.98437 9.9225,0.315 14.88375,0.1575c5.23687,-0.11813 9.6075,-1.96875 13.42687,-5.5125c3.42562,-3.15 6.1425,-6.93 7.83562,-11.30062c1.85062,-4.68562 2.48062,-9.48937 2.16562,-14.49zM164.7241,101.23587c-0.11813,0.11813 -0.23625,0.27562 -0.39375,0.39375c-3.50437,2.55938 -6.37875,5.74875 -9.33187,8.89875c-2.835,3.03187 -5.94563,5.8275 -8.85937,8.78063c-6.02437,6.1425 -11.45812,12.79687 -17.04937,19.29375c-2.835,3.3075 -5.86688,6.41813 -8.58375,9.80438c-2.79563,3.465 -5.39437,7.04812 -8.0325,10.63125c-2.08688,2.79562 -4.21312,5.59125 -6.4575,8.26875c-1.33875,1.575 -4.01625,3.9375 -4.17375,6.1425c-0.11813,1.45688 -1.29938,1.89 -2.40188,1.65375c-0.7875,0.23625 -1.7325,0.07875 -2.32313,-0.82688c-1.18125,-1.7325 -2.3625,-3.465 -3.6225,-5.15812c-1.02375,-1.37813 -2.00812,-3.07125 -3.42562,-4.095c-1.26,-0.945 -2.63813,-1.7325 -3.97688,-2.48063c-0.55125,-0.315 -1.1025,-0.59062 -1.69313,-0.90562c-0.27562,-0.11813 -1.33875,-0.43313 -0.4725,-0.27562c-2.55938,-0.51188 -2.00813,-4.29188 0.35437,-4.29188c0,0 0,0 0.03938,0c1.89,-1.02375 3.89812,-1.7325 5.90625,-2.44125c2.12625,-0.7875 3.74063,-1.77188 5.47312,-3.22875c3.07125,-2.63812 5.94563,-5.5125 9.09563,-8.07187c2.16562,-1.77188 4.5675,1.85063 2.44125,3.58312c-3.34687,2.71688 -6.3,5.8275 -9.6075,8.54438c-1.65375,1.33875 -3.26812,2.32313 -5.31562,3.07125c-0.945,0.35437 -1.89,0.63 -2.835,0.98438c1.1025,0.63 2.16563,1.29937 3.18937,2.0475c1.65375,1.22063 2.835,2.9925 4.05563,4.64625c0.74812,1.02375 1.49625,2.00813 2.205,3.03188c0.86625,-1.33875 1.96875,-2.55937 2.835,-3.58312c2.24438,-2.71688 4.44938,-5.43375 6.57563,-8.22938c2.79562,-3.78 5.5125,-7.63875 8.46563,-11.26125c2.87437,-3.54375 6.06375,-6.89062 9.05625,-10.35563c5.86688,-6.89062 11.61562,-13.93875 18.03375,-20.3175c3.11062,-3.07125 6.26062,-6.10313 9.25312,-9.2925c2.59875,-2.79562 5.31563,-5.55187 8.38688,-7.83563c-1.575,-1.22062 -3.66188,-2.08687 -5.15813,-3.03187c-1.37812,-0.86625 -2.71687,-1.77188 -3.81937,-2.9925c-1.18125,-1.29938 -2.24438,-2.95312 -3.74062,-3.9375c-2.28375,-1.53563 -0.39375,-5.43375 1.92937,-3.89813c1.89,1.26 3.11062,2.95313 4.68562,4.5675c1.14187,1.18125 2.3625,2.0475 3.74062,2.87438c2.59875,1.575 6.18188,3.15 7.75688,5.90625c0.98438,1.7325 -0.66937,3.54375 -2.205,3.38625z"/>
                    </g>
                </g>
                <g fill="#bcbcbc">
                    <g>
                        <path d="M69.31847,176.44212c-5.5125,-2.91375 -10.74937,1.33875 -14.41125,5.31563c-3.22875,3.465 -5.90625,7.36313 -8.62313,11.22188c0.70875,0.1575 1.45687,0.35438 2.16563,0.55125c0.39375,0.07875 1.26,0.43313 1.65375,0.27562c1.81125,-0.7875 3.3075,-2.59875 4.60687,-4.01625c1.49625,-1.61437 2.87438,-3.26812 4.48875,-4.76437c3.58312,-3.38625 7.99312,-6.06375 13.15125,-4.76438c0.7875,0.19688 1.575,0.4725 2.32313,0.74813c-1.575,-1.81125 -3.3075,-3.50437 -5.355,-4.5675z"/>
                    </g>
                </g>
                <g fill="#bcbcbc">
                    <g>
                        <path d="M212.1316,67.4915c0.03938,0.7875 0.07875,1.61437 0.1575,2.40188c0.35437,5.15812 0.43312,10.04062 -0.98437,15.04125c-1.26,4.48875 -3.18938,8.74125 -6.06375,12.40313c-2.95312,3.74062 -6.81187,7.32375 -11.22187,9.25312c-4.52813,1.96875 -9.37125,1.96875 -14.21437,1.65375c-4.64625,-0.315 -9.48938,-0.98437 -13.58438,1.7325c-3.58313,2.40188 -6.22125,6.06375 -8.93812,9.37125c-7.91438,9.80437 -16.065,19.45125 -24.45188,28.86188c-4.13437,4.64625 -8.38688,9.17438 -12.56062,13.74187c-2.91375,3.18938 -6.69375,6.33938 -8.26875,10.47375c-1.22062,3.18937 -0.43312,6.41812 0.74813,9.56813c1.96875,-6.37875 5.94562,-11.93063 10.27687,-17.01c5.8275,-6.81187 11.61562,-13.66312 17.52187,-20.43562c4.095,-4.68562 8.26875,-9.37125 12.36375,-14.09625c3.54375,-4.05563 6.73313,-8.62313 10.71,-12.32438c4.095,-3.78 8.58375,-5.74875 14.13563,-6.22125c5.27625,-0.4725 10.78875,0.03937 15.94688,-1.45687c8.54437,-2.48063 14.805,-8.9775 17.64,-17.36438c2.87438,-8.54438 2.55938,-17.08875 0.7875,-25.59375z"/>
                    </g>
                </g>
                <g fill="#000000">
                    <g>
                        <path d="M213.98222,57.37212c-0.23625,-0.7875 -0.7875,-1.22062 -1.37812,-1.37812c-0.945,-1.14187 -3.38625,-1.06312 -3.9375,0.90563c-0.11813,0.43312 -0.23625,0.86625 -0.315,1.29937c-0.27562,0.19687 -0.51188,0.4725 -0.66937,0.90562c-1.33875,3.26812 -3.74062,5.90625 -6.22125,8.42625c-2.48063,2.48063 -5.1975,5.355 -8.38688,6.93c-2.95312,1.45688 -5.94563,0.945 -8.78063,-0.43312c-0.70875,-1.45688 -1.53562,-2.87438 -2.3625,-4.29188c-1.06312,-1.89 -1.06312,-3.58312 -0.4725,-5.63062c1.02375,-3.54375 3.465,-6.73313 6.02438,-9.33188c2.00812,-2.0475 4.96125,-4.41 5.63063,-7.36312c0.39375,-1.65375 -0.39375,-3.42563 -0.82688,-5.00062c-0.27562,-0.945 -0.23625,-1.92938 -0.23625,-2.91375v-0.03937v-0.315c0,-1.7325 -1.65375,-2.24437 -2.91375,-1.7325c-0.55125,-0.66938 -1.45687,-1.02375 -2.28375,-0.66938c-0.19688,-0.03937 -0.43312,-0.07875 -0.66938,-0.03937c-3.58313,0.23625 -7.16625,0 -10.78875,0.03937c-3.18938,0.03937 -6.3,0.4725 -9.41062,1.18125c-5.43375,1.26 -10.63125,3.81938 -14.805,7.56c-4.37063,3.89813 -7.12688,8.82 -8.74125,14.41125c-1.77187,6.1425 -1.33875,12.67875 -1.22063,19.01813c-0.1575,0.23625 -0.27562,0.55125 -0.315,0.90563c-1.61438,10.67062 -7.16625,19.60875 -14.45062,27.32625c-8.54438,9.01687 -16.77375,18.27 -25.6725,26.9325c-1.7325,1.69313 -3.54375,3.3075 -5.11875,5.15813c-1.61437,1.85062 -3.11063,3.78 -4.76438,5.59125c-1.37812,1.53563 -2.95312,2.9925 -4.8825,3.81938c-2.32313,0.945 -4.92187,0.27562 -7.245,-0.35438c-2.28375,-0.63 -4.48875,-1.49625 -6.7725,-2.205c-2.00812,-0.59063 -4.095,-0.74812 -6.18187,-0.82688c-4.095,-0.11813 -8.30813,0.82688 -12.08813,2.32313c-7.0875,2.79563 -13.62375,8.62312 -15.31687,16.30125c-1.1025,4.96125 -1.06312,10.19813 -0.7875,15.23812c0.1575,2.71688 0.55125,5.43375 0.70875,8.19c0.1575,2.75625 0.43313,5.47312 1.06313,8.19c0.19687,0.7875 0.66937,1.22062 1.22062,1.37812c0.74813,0.98438 2.24437,1.37813 3.18938,0.11813c0.23625,0 0.51187,0.03938 0.74812,0.07875c0.86625,0.11813 1.7325,0.39375 2.59875,0.59062c1.4175,0.35438 2.91375,0.70875 4.33125,0.19687c3.3075,-1.14187 5.94562,-4.725 8.22937,-7.20562c2.52,-2.75625 5.355,-6.02438 9.2925,-6.37875c4.5675,-0.43313 9.68625,3.58312 12.32438,6.96938c0.63,0.7875 1.49625,0.98438 2.28375,0.7875c0.1575,0.19688 0.315,0.39375 0.43313,0.63c2.3625,3.42563 1.69313,6.81188 -0.03938,10.31625c-1.96875,4.05563 -4.725,7.67812 -6.7725,11.69437c-0.90563,1.7325 0.70875,3.18938 2.205,3.07125c0.11812,1.06313 0.86625,2.08688 2.24437,2.00813c6.7725,-0.315 13.7025,-1.65375 20.04188,-4.05563c6.49688,-2.48062 13.0725,-6.69375 14.805,-13.86c1.06312,-4.44938 0,-9.25313 -1.49625,-13.545c0.43312,-0.27562 0.7875,-0.74813 0.90563,-1.4175c1.575,-10.2375 9.17438,-17.75813 15.67125,-25.27875c8.15063,-9.41062 16.26188,-18.86062 24.4125,-28.23187c3.54375,-4.095 6.81188,-8.54438 10.71,-12.32438c4.37062,-4.21312 9.765,-4.80375 15.55313,-5.04c5.04,-0.19687 9.9225,-0.39375 14.68687,-2.08688c4.05562,-1.4175 7.63875,-3.85875 10.67063,-6.85125c5.70937,-5.59125 8.505,-13.50562 9.68625,-21.2625c1.61437,-9.64687 -0.59063,-19.17562 -3.34688,-28.42875zM186.4591,43.709c0.4725,-0.51188 0.945,-1.02375 1.37813,-1.53563c0,0.03937 0,0.03937 0,0.07875c0.19688,1.22062 1.37812,3.50437 0.945,4.41c-1.29937,2.835 -4.44938,4.92188 -6.41813,7.245c-2.71688,3.15 -4.725,7.20562 -5.63063,11.26125c-0.27562,1.18125 -0.1575,2.32312 0.11812,3.38625c-0.23625,-0.23625 -0.51188,-0.43312 -0.74812,-0.66938c-1.77187,-1.65375 -4.41,-4.41 -4.13438,-7.04812c0.27563,-2.79563 2.71688,-5.11875 4.5675,-7.00875c2.12625,-2.12625 4.44938,-4.01625 6.49687,-6.22125c1.18125,-1.26 2.24437,-2.63813 3.42562,-3.89812zM72.31097,180.22212c-5.11875,-1.33875 -9.52875,1.37813 -13.15125,4.76438c-1.575,1.49625 -2.9925,3.15 -4.48875,4.76437c-1.29937,1.4175 -2.79563,3.22875 -4.60688,4.01625c-0.39375,0.1575 -1.26,-0.1575 -1.65375,-0.27562c-0.70875,-0.1575 -1.45687,-0.35438 -2.16562,-0.55125c2.71687,-3.85875 5.39438,-7.7175 8.62313,-11.22188c3.66187,-3.9375 8.89875,-8.19 14.41125,-5.31563c2.0475,1.06313 3.78,2.75625 5.31563,4.52812c-0.70875,-0.23625 -1.49625,-0.51187 -2.28375,-0.70875zM111.6466,202.98087c-1.37812,2.9925 -4.17375,5.04 -6.93,6.615c-6.06375,3.465 -13.46625,4.96125 -20.35688,5.63063c-0.82687,0.07875 -1.69313,0.1575 -2.52,0.19688c4.05563,-7.20563 11.30062,-15.31687 6.73312,-23.74313c-1.96875,-3.66188 -5.1975,-6.73313 -7.79625,-10.00125c-2.63813,-3.34688 -5.39438,-6.53625 -9.01687,-8.78063c-6.33938,-3.9375 -13.03313,-0.51188 -17.955,3.9375c-4.29187,3.89812 -7.52062,8.74125 -10.8675,13.46625c-0.1575,-1.575 -0.23625,-3.15 -0.315,-4.725c-0.1575,-2.91375 -0.59062,-5.78812 -0.70875,-8.74125c-0.19687,-5.07937 -0.23625,-10.82812 2.0475,-15.47438c3.66188,-7.44187 12.4425,-11.26125 20.35688,-11.77312c4.48875,-0.27562 8.3475,1.22063 12.52125,2.55938c4.60688,1.49625 9.135,1.89 13.34812,-0.86625c3.85875,-2.52 6.4575,-6.65437 9.48938,-10.04062c3.81937,-4.29188 8.26875,-8.11125 12.32438,-12.24563c7.44188,-7.56 14.88375,-15.2775 21.61687,-23.42813c5.55188,-6.73313 9.6075,-14.52938 11.26125,-23.11312c0.43313,-0.39375 0.74812,-0.945 0.74812,-1.69313c-0.03938,-6.3 -0.51188,-12.6 0.7875,-18.78187c1.1025,-5.1975 3.81938,-9.765 7.67813,-13.3875c3.70125,-3.42562 8.54437,-5.47312 13.34812,-6.65438c5.15813,-1.26 10.395,-0.82688 15.63188,-0.86625c-0.4725,0.4725 -0.90563,0.90563 -1.29937,1.37812c-1.22063,1.37812 -2.32313,2.75625 -3.66188,4.01625c-2.63812,2.52 -5.47312,4.80375 -7.67812,7.7175c-2.12625,2.75625 -3.18938,5.78813 -2.40188,9.21375c0.7875,3.38625 3.58313,6.22125 6.06375,8.46563c5.55188,4.96125 12.83625,10.00125 20.39625,6.65438c3.78,-1.65375 6.81187,-4.8825 9.72562,-7.7175c1.22062,-1.18125 2.44125,-2.44125 3.54375,-3.78c0.07875,1.92938 0.23625,3.85875 0.35438,5.78813c0.315,5.00062 -0.35438,9.765 -2.16563,14.49c-1.69313,4.37062 -4.41,8.15063 -7.83562,11.30062c-3.85875,3.54375 -8.22938,5.39437 -13.42688,5.5125c-4.96125,0.11813 -9.96187,-1.14187 -14.88375,-0.1575c-4.21312,0.82688 -7.59938,3.3075 -10.5525,6.33937c-3.58312,3.74063 -6.69375,8.0325 -10.00125,12.04875c-4.01625,4.8825 -8.07188,9.68625 -12.20625,14.49c-7.79625,9.01687 -15.94688,17.71875 -23.97938,26.49937c-2.91375,3.15 -5.5125,6.7725 -6.02438,11.14312c-0.59063,5.23688 2.16562,10.2375 3.89813,15.00188c1.53563,4.17375 2.6775,9.25313 0.70875,13.50562zM211.30472,93.12462c-2.835,8.38687 -9.09563,14.84438 -17.64,17.36437c-5.15813,1.49625 -10.67063,0.98438 -15.94688,1.45687c-5.59125,0.4725 -10.04063,2.44125 -14.13563,6.22125c-3.9375,3.66188 -7.16625,8.22938 -10.71,12.32438c-4.095,4.725 -8.22937,9.37125 -12.36375,14.09625c-5.90625,6.7725 -11.69437,13.62375 -17.52187,20.43562c-4.33125,5.07937 -8.30812,10.63125 -10.27687,17.01c-1.18125,-3.11062 -1.96875,-6.33938 -0.74813,-9.56813c1.575,-4.13437 5.355,-7.28438 8.26875,-10.47375c4.21312,-4.5675 8.42625,-9.09563 12.56062,-13.74187c8.38688,-9.41062 16.5375,-19.0575 24.45188,-28.86188c2.6775,-3.34687 5.31563,-6.96937 8.93812,-9.37125c4.095,-2.75625 8.93813,-2.08688 13.58438,-1.7325c4.84313,0.315 9.68625,0.315 14.21438,-1.65375c4.41,-1.92937 8.26875,-5.5125 11.22187,-9.25313c2.87438,-3.66187 4.80375,-7.91437 6.06375,-12.40313c1.4175,-5.00062 1.33875,-9.88312 0.98438,-15.04125c-0.03938,-0.7875 -0.11813,-1.61437 -0.1575,-2.40187c1.81125,8.46563 2.12625,17.01 -0.7875,25.59375z"/>
                    </g>
                </g>
                <g fill="#000000">
                    <g>
                        <path d="M166.88972,97.81025c-1.575,-2.75625 -5.15813,-4.33125 -7.75688,-5.90625c-1.37812,-0.82688 -2.59875,-1.69313 -3.74062,-2.87438c-1.53563,-1.61437 -2.79563,-3.3075 -4.68563,-4.5675c-2.32312,-1.53562 -4.21312,2.3625 -1.92937,3.89813c1.49625,0.98438 2.55937,2.63812 3.74062,3.9375c1.1025,1.22062 2.44125,2.12625 3.81937,2.9925c1.49625,0.945 3.58313,1.81125 5.15813,3.03187c-3.07125,2.32313 -5.74875,5.04 -8.38688,7.83563c-2.9925,3.18937 -6.1425,6.22125 -9.25312,9.2925c-6.4575,6.37875 -12.16687,13.42687 -18.03375,20.3175c-2.9925,3.50438 -6.18187,6.81188 -9.05625,10.35563c-2.95312,3.66188 -5.67,7.52062 -8.46563,11.26125c-2.08687,2.835 -4.29187,5.55187 -6.57562,8.22937c-0.86625,1.02375 -1.96875,2.24437 -2.835,3.58313c-0.70875,-1.02375 -1.45687,-2.0475 -2.205,-3.03188c-1.22062,-1.61437 -2.40188,-3.38625 -4.05563,-4.64625c-1.02375,-0.74813 -2.08688,-1.4175 -3.18937,-2.0475c0.945,-0.35438 1.89,-0.66938 2.835,-0.98437c2.0475,-0.74812 3.6225,-1.7325 5.31562,-3.07125c3.3075,-2.71688 6.3,-5.8275 9.6075,-8.54438c2.16562,-1.7325 -0.23625,-5.355 -2.44125,-3.58312c-3.15,2.55938 -5.985,5.43375 -9.09562,8.07188c-1.7325,1.45687 -3.34687,2.48062 -5.47312,3.22875c-2.0475,0.74812 -4.01625,1.4175 -5.90625,2.44125c0,0 0,0 -0.03938,0c-2.3625,0 -2.91375,3.78 -0.35438,4.29188c-0.82687,-0.1575 0.19688,0.11813 0.4725,0.27562c0.55125,0.27562 1.14188,0.59062 1.69312,0.90563c1.37813,0.74812 2.75625,1.53562 3.97688,2.48062c1.37812,1.02375 2.40188,2.71688 3.42562,4.095c1.26,1.69313 2.44125,3.42563 3.6225,5.15813c0.59063,0.90562 1.53563,1.1025 2.32313,0.82687c1.1025,0.27562 2.28375,-0.19687 2.40187,-1.65375c0.1575,-2.205 2.835,-4.5675 4.17375,-6.1425c2.24437,-2.6775 4.37063,-5.43375 6.4575,-8.26875c2.63813,-3.58312 5.23688,-7.16625 8.0325,-10.63125c2.71688,-3.34688 5.78813,-6.49688 8.58375,-9.80437c5.59125,-6.53625 11.025,-13.15125 17.04938,-19.29375c2.91375,-2.9925 5.985,-5.74875 8.85938,-8.78063c2.95313,-3.15 5.8275,-6.33937 9.33187,-8.89875c0.1575,-0.11813 0.27562,-0.23625 0.39375,-0.39375c1.575,0.19688 3.22875,-1.61437 2.205,-3.38625z"/>
                    </g>
                </g>
            </g>
        </g>
        <path d="M37.8,252c-20.87636,0 -37.8,-16.92364 -37.8,-37.8v-176.4c0,-20.87636 16.92364,-37.8 37.8,-37.8h176.4c20.87636,0 37.8,16.92364 37.8,37.8v176.4c0,20.87636 -16.92364,37.8 -37.8,37.8z"
              fill="none"/>
        <path d="M83.16,206.64c-20.87636,0 -37.8,-16.92364 -37.8,-37.8v-85.68c0,-20.87636 16.92364,-37.8 37.8,-37.8h85.68c20.87636,0 37.8,16.92364 37.8,37.8v85.68c0,20.87636 -16.92364,37.8 -37.8,37.8z"
              fill="none"/>
        <path d="M37.8,252c-20.87636,0 -37.8,-16.92364 -37.8,-37.8v-176.4c0,-20.87636 16.92364,-37.8 37.8,-37.8h176.4c20.87636,0 37.8,16.92364 37.8,37.8v176.4c0,20.87636 -16.92364,37.8 -37.8,37.8z"
              fill="none"/>
        <path d="M78.12,211.68c-20.87636,0 -37.8,-16.92364 -37.8,-37.8v-95.76c0,-20.87636 16.92364,-37.8 37.8,-37.8h95.76c20.87636,0 37.8,16.92364 37.8,37.8v95.76c0,20.87636 -16.92364,37.8 -37.8,37.8z"
              fill="none"/>
        <path d="M37.8,252c-20.87636,0 -37.8,-16.92364 -37.8,-37.8v-176.4c0,-20.87636 16.92364,-37.8 37.8,-37.8h176.4c20.87636,0 37.8,16.92364 37.8,37.8v176.4c0,20.87636 -16.92364,37.8 -37.8,37.8z"
              fill="none"/>
        <path d="M73.08,216.72c-20.87636,0 -37.8,-16.92364 -37.8,-37.8v-105.84c0,-20.87636 16.92364,-37.8 37.8,-37.8h105.84c20.87636,0 37.8,16.92364 37.8,37.8v105.84c0,20.87636 -16.92364,37.8 -37.8,37.8z"
              fill="none"/>
        <path d="M37.8,252c-20.87636,0 -37.8,-16.92364 -37.8,-37.8v-176.4c0,-20.87636 16.92364,-37.8 37.8,-37.8h176.4c20.87636,0 37.8,16.92364 37.8,37.8v176.4c0,20.87636 -16.92364,37.8 -37.8,37.8z"
              fill="none"/>
        <path d="M68.04,221.76c-20.87636,0 -37.8,-16.92364 -37.8,-37.8v-115.92c0,-20.87636 16.92364,-37.8 37.8,-37.8h115.92c20.87636,0 37.8,16.92364 37.8,37.8v115.92c0,20.87636 -16.92364,37.8 -37.8,37.8z"
              fill="none"/>
        <path d="M37.8,252c-20.87636,0 -37.8,-16.92364 -37.8,-37.8v-176.4c0,-20.87636 16.92364,-37.8 37.8,-37.8h176.4c20.87636,0 37.8,16.92364 37.8,37.8v176.4c0,20.87636 -16.92364,37.8 -37.8,37.8z"
              fill="none"/>
        <path d="M63,226.8c-20.87636,0 -37.8,-16.92364 -37.8,-37.8v-126c0,-20.87636 16.92364,-37.8 37.8,-37.8h126c20.87636,0 37.8,16.92364 37.8,37.8v126c0,20.87636 -16.92364,37.8 -37.8,37.8z"
              fill="none"/>
        <path d="M37.8,252c-20.87636,0 -37.8,-16.92364 -37.8,-37.8v-176.4c0,-20.87636 16.92364,-37.8 37.8,-37.8h176.4c20.87636,0 37.8,16.92364 37.8,37.8v176.4c0,20.87636 -16.92364,37.8 -37.8,37.8z"
              fill="none"/>
        <path d="M57.96,231.84c-20.87636,0 -37.8,-16.92364 -37.8,-37.8v-136.08c0,-20.87636 16.92364,-37.8 37.8,-37.8h136.08c20.87636,0 37.8,16.92364 37.8,37.8v136.08c0,20.87636 -16.92364,37.8 -37.8,37.8z"
              fill="none"/>
        <path d="M37.8,252c-20.87636,0 -37.8,-16.92364 -37.8,-37.8v-176.4c0,-20.87636 16.92364,-37.8 37.8,-37.8h176.4c20.87636,0 37.8,16.92364 37.8,37.8v176.4c0,20.87636 -16.92364,37.8 -37.8,37.8z"
              fill="none"/>
        <path d="M52.92,236.88c-20.87636,0 -37.8,-16.92364 -37.8,-37.8v-146.16c0,-20.87636 16.92364,-37.8 37.8,-37.8h146.16c20.87636,0 37.8,16.92364 37.8,37.8v146.16c0,20.87636 -16.92364,37.8 -37.8,37.8z"
              fill="none"/>
        <path d="M37.8,252c-20.87636,0 -37.8,-16.92364 -37.8,-37.8v-176.4c0,-20.87636 16.92364,-37.8 37.8,-37.8h176.4c20.87636,0 37.8,16.92364 37.8,37.8v176.4c0,20.87636 -16.92364,37.8 -37.8,37.8z"
              fill="none"/>
        <path d="M47.88,241.92c-20.87636,0 -37.8,-16.92364 -37.8,-37.8v-156.24c0,-20.87636 16.92364,-37.8 37.8,-37.8h156.24c20.87636,0 37.8,16.92364 37.8,37.8v156.24c0,20.87636 -16.92364,37.8 -37.8,37.8z"
              fill="none"/>
        <path d="M37.8,252c-20.87636,0 -37.8,-16.92364 -37.8,-37.8v-176.4c0,-20.87636 16.92364,-37.8 37.8,-37.8h176.4c20.87636,0 37.8,16.92364 37.8,37.8v176.4c0,20.87636 -16.92364,37.8 -37.8,37.8z"
              fill="none"/>
        <path d="M42.84,246.96c-20.87636,0 -37.8,-16.92364 -37.8,-37.8v-166.32c0,-20.87636 16.92364,-37.8 37.8,-37.8h166.32c20.87636,0 37.8,16.92364 37.8,37.8v166.32c0,20.87636 -16.92364,37.8 -37.8,37.8z"
              fill="none"/>
        <path d="M37.8,252c-20.87636,0 -37.8,-16.92364 -37.8,-37.8v-176.4c0,-20.87636 16.92364,-37.8 37.8,-37.8h176.4c20.87636,0 37.8,16.92364 37.8,37.8v176.4c0,20.87636 -16.92364,37.8 -37.8,37.8z"
              fill="none"/>
        <path d="M42.84,246.96c-20.87636,0 -37.8,-16.92364 -37.8,-37.8v-166.32c0,-20.87636 16.92364,-37.8 37.8,-37.8h166.32c20.87636,0 37.8,16.92364 37.8,37.8v166.32c0,20.87636 -16.92364,37.8 -37.8,37.8z"
              fill="none"/>
        <path d="M37.8,252c-20.87636,0 -37.8,-16.92364 -37.8,-37.8v-176.4c0,-20.87636 16.92364,-37.8 37.8,-37.8h176.4c20.87636,0 37.8,16.92364 37.8,37.8v176.4c0,20.87636 -16.92364,37.8 -37.8,37.8z"
              fill="none"/>
        <path d="M42.84,246.96c-20.87636,0 -37.8,-16.92364 -37.8,-37.8v-166.32c0,-20.87636 16.92364,-37.8 37.8,-37.8h166.32c20.87636,0 37.8,16.92364 37.8,37.8v166.32c0,20.87636 -16.92364,37.8 -37.8,37.8z"
              fill="none"/>
        <path d="M37.8,252c-20.87636,0 -37.8,-16.92364 -37.8,-37.8v-176.4c0,-20.87636 16.92364,-37.8 37.8,-37.8h176.4c20.87636,0 37.8,16.92364 37.8,37.8v176.4c0,20.87636 -16.92364,37.8 -37.8,37.8z"
              fill="none"/>
        <path d="M42.84,246.96c-20.87636,0 -37.8,-16.92364 -37.8,-37.8v-166.32c0,-20.87636 16.92364,-37.8 37.8,-37.8h166.32c20.87636,0 37.8,16.92364 37.8,37.8v166.32c0,20.87636 -16.92364,37.8 -37.8,37.8z"
              fill="none"/>
        <path d="M37.8,252c-20.87636,0 -37.8,-16.92364 -37.8,-37.8v-176.4c0,-20.87636 16.92364,-37.8 37.8,-37.8h176.4c20.87636,0 37.8,16.92364 37.8,37.8v176.4c0,20.87636 -16.92364,37.8 -37.8,37.8z"
              fill="none"/>
        <path d="M42.84,246.96c-20.87636,0 -37.8,-16.92364 -37.8,-37.8v-166.32c0,-20.87636 16.92364,-37.8 37.8,-37.8h166.32c20.87636,0 37.8,16.92364 37.8,37.8v166.32c0,20.87636 -16.92364,37.8 -37.8,37.8z"
              fill="none"/>
        <path d="M37.8,252c-20.87636,0 -37.8,-16.92364 -37.8,-37.8v-176.4c0,-20.87636 16.92364,-37.8 37.8,-37.8h176.4c20.87636,0 37.8,16.92364 37.8,37.8v176.4c0,20.87636 -16.92364,37.8 -37.8,37.8z"
              fill="none"/>
        <path d="M42.84,246.96c-20.87636,0 -37.8,-16.92364 -37.8,-37.8v-166.32c0,-20.87636 16.92364,-37.8 37.8,-37.8h166.32c20.87636,0 37.8,16.92364 37.8,37.8v166.32c0,20.87636 -16.92364,37.8 -37.8,37.8z"
              fill="none"/>
        <path d="M37.8,252c-20.87636,0 -37.8,-16.92364 -37.8,-37.8v-176.4c0,-20.87636 16.92364,-37.8 37.8,-37.8h176.4c20.87636,0 37.8,16.92364 37.8,37.8v176.4c0,20.87636 -16.92364,37.8 -37.8,37.8z"
              fill="none"/>
        <path d="M42.84,246.96c-20.87636,0 -37.8,-16.92364 -37.8,-37.8v-166.32c0,-20.87636 16.92364,-37.8 37.8,-37.8h166.32c20.87636,0 37.8,16.92364 37.8,37.8v166.32c0,20.87636 -16.92364,37.8 -37.8,37.8z"
              fill="none"/>
        <path d="M37.8,252c-20.87636,0 -37.8,-16.92364 -37.8,-37.8v-176.4c0,-20.87636 16.92364,-37.8 37.8,-37.8h176.4c20.87636,0 37.8,16.92364 37.8,37.8v176.4c0,20.87636 -16.92364,37.8 -37.8,37.8z"
              fill="none"/>
        <path d="M42.84,246.96c-20.87636,0 -37.8,-16.92364 -37.8,-37.8v-166.32c0,-20.87636 16.92364,-37.8 37.8,-37.8h166.32c20.87636,0 37.8,16.92364 37.8,37.8v166.32c0,20.87636 -16.92364,37.8 -37.8,37.8z"
              fill="none"/>
        <path d="M37.8,252c-20.87636,0 -37.8,-16.92364 -37.8,-37.8v-176.4c0,-20.87636 16.92364,-37.8 37.8,-37.8h176.4c20.87636,0 37.8,16.92364 37.8,37.8v176.4c0,20.87636 -16.92364,37.8 -37.8,37.8z"
              fill="none"/>
        <path d="M42.84,246.96c-20.87636,0 -37.8,-16.92364 -37.8,-37.8v-166.32c0,-20.87636 16.92364,-37.8 37.8,-37.8h166.32c20.87636,0 37.8,16.92364 37.8,37.8v166.32c0,20.87636 -16.92364,37.8 -37.8,37.8z"
              fill="none"/>
        <path d="M37.8,252c-20.87636,0 -37.8,-16.92364 -37.8,-37.8v-176.4c0,-20.87636 16.92364,-37.8 37.8,-37.8h176.4c20.87636,0 37.8,16.92364 37.8,37.8v176.4c0,20.87636 -16.92364,37.8 -37.8,37.8z"
              fill="none"/>
        <path d="M42.84,246.96c-20.87636,0 -37.8,-16.92364 -37.8,-37.8v-166.32c0,-20.87636 16.92364,-37.8 37.8,-37.8h166.32c20.87636,0 37.8,16.92364 37.8,37.8v166.32c0,20.87636 -16.92364,37.8 -37.8,37.8z"
              fill="none"/>
        <path d="M37.8,252c-20.87636,0 -37.8,-16.92364 -37.8,-37.8v-176.4c0,-20.87636 16.92364,-37.8 37.8,-37.8h176.4c20.87636,0 37.8,16.92364 37.8,37.8v176.4c0,20.87636 -16.92364,37.8 -37.8,37.8z"
              fill="none"/>
        <path d="M42.84,246.96c-20.87636,0 -37.8,-16.92364 -37.8,-37.8v-166.32c0,-20.87636 16.92364,-37.8 37.8,-37.8h166.32c20.87636,0 37.8,16.92364 37.8,37.8v166.32c0,20.87636 -16.92364,37.8 -37.8,37.8z"
              fill="none"/>
        <path d="M37.8,252c-20.87636,0 -37.8,-16.92364 -37.8,-37.8v-176.4c0,-20.87636 16.92364,-37.8 37.8,-37.8h176.4c20.87636,0 37.8,16.92364 37.8,37.8v176.4c0,20.87636 -16.92364,37.8 -37.8,37.8z"
              fill="none"/>
        <path d="M42.84,246.96c-20.87636,0 -37.8,-16.92364 -37.8,-37.8v-166.32c0,-20.87636 16.92364,-37.8 37.8,-37.8h166.32c20.87636,0 37.8,16.92364 37.8,37.8v166.32c0,20.87636 -16.92364,37.8 -37.8,37.8z"
              fill="none"/>
        <path d="M37.8,252c-20.87636,0 -37.8,-16.92364 -37.8,-37.8v-176.4c0,-20.87636 16.92364,-37.8 37.8,-37.8h176.4c20.87636,0 37.8,16.92364 37.8,37.8v176.4c0,20.87636 -16.92364,37.8 -37.8,37.8z"
              fill="none"/>
        <path d="M42.84,246.96c-20.87636,0 -37.8,-16.92364 -37.8,-37.8v-166.32c0,-20.87636 16.92364,-37.8 37.8,-37.8h166.32c20.87636,0 37.8,16.92364 37.8,37.8v166.32c0,20.87636 -16.92364,37.8 -37.8,37.8z"
              fill="none"/>
        <path d="M37.8,252c-20.87636,0 -37.8,-16.92364 -37.8,-37.8v-176.4c0,-20.87636 16.92364,-37.8 37.8,-37.8h176.4c20.87636,0 37.8,16.92364 37.8,37.8v176.4c0,20.87636 -16.92364,37.8 -37.8,37.8z"
              fill="none"/>
        <path d="M42.84,246.96c-20.87636,0 -37.8,-16.92364 -37.8,-37.8v-166.32c0,-20.87636 16.92364,-37.8 37.8,-37.8h166.32c20.87636,0 37.8,16.92364 37.8,37.8v166.32c0,20.87636 -16.92364,37.8 -37.8,37.8z"
              fill="none"/>
        <path d="M37.8,252c-20.87636,0 -37.8,-16.92364 -37.8,-37.8v-176.4c0,-20.87636 16.92364,-37.8 37.8,-37.8h176.4c20.87636,0 37.8,16.92364 37.8,37.8v176.4c0,20.87636 -16.92364,37.8 -37.8,37.8z"
              fill="none"/>
        <path d="M42.84,246.96c-20.87636,0 -37.8,-16.92364 -37.8,-37.8v-166.32c0,-20.87636 16.92364,-37.8 37.8,-37.8h166.32c20.87636,0 37.8,16.92364 37.8,37.8v166.32c0,20.87636 -16.92364,37.8 -37.8,37.8z"
              fill="none"/>
        <path d="M37.8,252c-20.87636,0 -37.8,-16.92364 -37.8,-37.8v-176.4c0,-20.87636 16.92364,-37.8 37.8,-37.8h176.4c20.87636,0 37.8,16.92364 37.8,37.8v176.4c0,20.87636 -16.92364,37.8 -37.8,37.8z"
              fill="none"/>
        <path d="M47.88,241.92c-20.87636,0 -37.8,-16.92364 -37.8,-37.8v-156.24c0,-20.87636 16.92364,-37.8 37.8,-37.8h156.24c20.87636,0 37.8,16.92364 37.8,37.8v156.24c0,20.87636 -16.92364,37.8 -37.8,37.8z"
              fill="none"/>
        <path d="M37.8,252c-20.87636,0 -37.8,-16.92364 -37.8,-37.8v-176.4c0,-20.87636 16.92364,-37.8 37.8,-37.8h176.4c20.87636,0 37.8,16.92364 37.8,37.8v176.4c0,20.87636 -16.92364,37.8 -37.8,37.8z"
              fill="none"/>
        <path d="M52.92,236.88c-20.87636,0 -37.8,-16.92364 -37.8,-37.8v-146.16c0,-20.87636 16.92364,-37.8 37.8,-37.8h146.16c20.87636,0 37.8,16.92364 37.8,37.8v146.16c0,20.87636 -16.92364,37.8 -37.8,37.8z"
              fill="none"/>
        <path d="M37.8,252c-20.87636,0 -37.8,-16.92364 -37.8,-37.8v-176.4c0,-20.87636 16.92364,-37.8 37.8,-37.8h176.4c20.87636,0 37.8,16.92364 37.8,37.8v176.4c0,20.87636 -16.92364,37.8 -37.8,37.8z"
              fill="none"/>
        <path d="M57.96,231.84c-20.87636,0 -37.8,-16.92364 -37.8,-37.8v-136.08c0,-20.87636 16.92364,-37.8 37.8,-37.8h136.08c20.87636,0 37.8,16.92364 37.8,37.8v136.08c0,20.87636 -16.92364,37.8 -37.8,37.8z"
              fill="none"/>
        <path d="M37.8,252c-20.87636,0 -37.8,-16.92364 -37.8,-37.8v-176.4c0,-20.87636 16.92364,-37.8 37.8,-37.8h176.4c20.87636,0 37.8,16.92364 37.8,37.8v176.4c0,20.87636 -16.92364,37.8 -37.8,37.8z"
              fill="none"/>
        <path d="M63,226.8c-20.87636,0 -37.8,-16.92364 -37.8,-37.8v-126c0,-20.87636 16.92364,-37.8 37.8,-37.8h126c20.87636,0 37.8,16.92364 37.8,37.8v126c0,20.87636 -16.92364,37.8 -37.8,37.8z"
              fill="none"/>
        <path d="M37.8,252c-20.87636,0 -37.8,-16.92364 -37.8,-37.8v-176.4c0,-20.87636 16.92364,-37.8 37.8,-37.8h176.4c20.87636,0 37.8,16.92364 37.8,37.8v176.4c0,20.87636 -16.92364,37.8 -37.8,37.8z"
              fill="none"/>
        <path d="M52.92,236.88c-20.87636,0 -37.8,-16.92364 -37.8,-37.8v-146.16c0,-20.87636 16.92364,-37.8 37.8,-37.8h146.16c20.87636,0 37.8,16.92364 37.8,37.8v146.16c0,20.87636 -16.92364,37.8 -37.8,37.8z"
              fill="none"/>
        <path d="M37.8,252c-20.87636,0 -37.8,-16.92364 -37.8,-37.8v-176.4c0,-20.87636 16.92364,-37.8 37.8,-37.8h176.4c20.87636,0 37.8,16.92364 37.8,37.8v176.4c0,20.87636 -16.92364,37.8 -37.8,37.8z"
              fill="none"/>
        <path d="M47.88,241.92c-20.87636,0 -37.8,-16.92364 -37.8,-37.8v-156.24c0,-20.87636 16.92364,-37.8 37.8,-37.8h156.24c20.87636,0 37.8,16.92364 37.8,37.8v156.24c0,20.87636 -16.92364,37.8 -37.8,37.8z"
              fill="none"/>
        <path d="M37.8,252c-20.87636,0 -37.8,-16.92364 -37.8,-37.8v-176.4c0,-20.87636 16.92364,-37.8 37.8,-37.8h176.4c20.87636,0 37.8,16.92364 37.8,37.8v176.4c0,20.87636 -16.92364,37.8 -37.8,37.8z"
              fill="none"/>
        <path d="M42.84,246.96c-20.87636,0 -37.8,-16.92364 -37.8,-37.8v-166.32c0,-20.87636 16.92364,-37.8 37.8,-37.8h166.32c20.87636,0 37.8,16.92364 37.8,37.8v166.32c0,20.87636 -16.92364,37.8 -37.8,37.8z"
              fill="none"/>
    </g>
</svg>
