<svg version="1.1" xmlns="http://www.w3.org/2000/svg" viewBox="0 0 252 252" width="64" height="64"
     style="fill: rgb(0, 0, 0);">
    <g fill="none" fill-rule="nonzero" stroke="none" stroke-width="1" stroke-linecap="butt" stroke-linejoin="miter"
       stroke-miterlimit="10" stroke-dasharray="" stroke-dashoffset="0" font-family="none"
       font-size="none" style="mix-blend-mode: normal">
        <path d="M0,252v-252h252v252z" fill="none"/>
        <path d="M126,252c-69.58788,0 -126,-56.41212 -126,-126v0c0,-69.58788 56.41212,-126 126,-126v0c69.58788,0 126,56.41212 126,126v0c0,69.58788 -56.41212,126 -126,126z"
              fill="#cccccc"/>
        <g id="Layer_1">
            <g>
                <g fill="#fcbf95">
                    <g>
                        <path d="M180.22982,99.81321c1.29938,-8.505 -5.74875,-15.15937 -9.52875,-22.01063c-2.75625,-5.00062 -7.4025,-16.30125 -14.9625,-13.03312c-4.33125,1.85063 -7.59938,5.78813 -11.61562,8.26875c-3.85875,2.40188 -8.22938,3.9375 -12.71813,2.44125c-4.84313,-1.61438 -7.56,-5.94563 -11.57625,-8.82c-3.89812,-2.75625 -8.22938,-1.89 -10.5525,2.32313c-2.48062,4.48875 -4.33125,9.135 -7.63875,13.15125c-3.54375,4.33125 -8.0325,7.75687 -10.67062,12.79688c-0.03937,0.07875 -0.11812,0.19687 -0.1575,0.27563c0.1575,1.45687 0.315,2.87437 0.43313,4.29187c0.55125,6.02438 1.45687,12.00938 2.0475,18.03375c1.02375,10.04063 1.06312,20.27813 3.58312,30.0825c2.205,8.54438 6.02438,16.81313 12.24562,23.19188c0.63,0.63 1.26,1.22062 1.89,1.81125c0.19687,0.11813 0.43312,0.315 0.59063,0.55125c5.74875,4.96125 12.52125,7.83562 20.3175,8.42625c9.21375,0.66937 18.9,-0.945 27.12938,-5.27625c1.4175,-0.74813 2.75625,-1.53563 4.01625,-2.48063c0.11813,-0.315 0.27562,-0.59062 0.43313,-0.86625c0.4725,-0.7875 1.22063,-1.1025 1.96875,-1.1025c1.45687,-1.33875 2.71687,-2.835 3.81938,-4.52812c2.52,-3.9375 4.01625,-8.38688 4.92188,-12.95437c0.945,-4.725 1.4175,-9.48938 1.96875,-14.25375c0.63,-5.31563 1.53562,-10.59187 2.32312,-15.86812c1.1025,-7.48125 2.12625,-15.00187 2.28375,-22.5225c-0.39375,-0.51188 -0.66937,-1.14187 -0.55125,-1.92937zM127.0342,126.47009c0.23625,-4.095 0.86625,-8.11125 1.06312,-12.20625c0.19688,-3.81937 0.39375,-7.63875 0.7875,-11.45812c0,-0.03937 0,-0.07875 0,-0.1575l0.03938,-0.43313c0.27562,-2.75625 4.64625,-2.63812 4.33125,0.11813c-0.39375,3.54375 -0.63,7.04813 -0.74812,10.63125c-0.1575,3.85875 -0.66938,7.63875 -0.98437,11.45812c-0.27562,3.465 -0.4725,7.0875 0.11812,10.51312c0.315,1.85062 0.82688,4.095 2.12625,5.67c0.59063,-0.07875 1.26,0.07875 1.77188,0.74812l1.06312,1.29938c1.22063,1.49625 -0.07875,4.44938 -2.24437,3.54375c-7.44188,-3.18938 -7.7175,-12.7575 -7.32375,-19.72688zM117.62357,104.89259c-0.63,1.33875 -1.77188,2.44125 -3.15,3.07125c-2.08688,0.98438 -4.52813,1.1025 -6.3,-0.55125c-1.53563,-1.45687 -1.69313,-3.66188 -1.4175,-5.74875c-0.90563,0.39375 -1.77188,0.86625 -2.44125,1.26c-2.40188,1.4175 -4.44938,-2.44125 -2.0475,-3.81937c6.26063,-3.66188 16.81313,-5.67 18.9,3.70125c0.55125,2.205 -2.16563,3.26812 -3.54375,2.08687zM142.23295,163.60071c-3.85875,4.13437 -10.08,1.02375 -14.49,-0.23625c-2.6775,-0.7875 -1.4175,-4.92187 1.26,-4.13437c2.63812,0.7875 7.95375,3.70125 10.27688,1.22062c1.92937,-2.08687 4.84313,1.1025 2.95313,3.15zM161.60545,105.44384c-0.19687,-0.35438 -0.43313,-0.66938 -0.70875,-1.02375c0,0.27563 0,0.55125 -0.03937,0.7875c-0.35438,2.71688 -2.91375,5.1975 -5.78813,4.76438c-2.63813,-0.39375 -4.44938,-3.11063 -4.21312,-5.74875c0.03938,-0.315 0.07875,-0.63 0.1575,-0.945c-0.23625,0.1575 -0.43313,0.35438 -0.63,0.55125c-1.96875,1.96875 -4.8825,-1.22062 -2.91375,-3.18937c3.03188,-3.03187 7.56,-3.78 11.4975,-2.52c1.53562,0.27562 2.91375,1.14187 4.095,2.24437c0.98438,0.82688 1.81125,1.85062 2.40188,3.03187c1.29938,2.52 -2.3625,4.41 -3.85875,2.0475z"/>
                    </g>
                </g>
                <g fill="#fcbf95">
                    <g>
                        <path d="M165.10982,190.73009c0,-1.06313 -0.82687,-2.79562 -1.14187,-3.9375c-0.4725,-1.7325 -0.90563,-3.465 -1.18125,-5.23687c-0.11812,-0.70875 -0.23625,-1.49625 -0.27562,-2.24437c-1.49625,0.86625 -3.07125,1.65375 -4.725,2.3625c-8.62313,3.54375 -18.27,5.15812 -27.5625,4.05562c-5.90625,-0.70875 -11.30062,-2.52 -16.14375,-5.43375c0.35437,3.38625 0,6.96938 -0.11813,10.27688c0.1575,0.19687 0.27562,0.43313 0.35438,0.74812c2.87437,9.6075 14.84437,10.11938 23.11312,9.37125c4.725,-0.43313 9.45,-1.26 14.0175,-2.55937c2.0475,-0.55125 4.01625,-1.22063 6.02437,-1.92937c2.75625,-0.945 5.985,-2.08688 7.56,-4.725c0.03938,-0.03938 0.07875,-0.11813 0.11813,-0.1575c0,-0.23625 -0.03938,-0.39375 -0.03938,-0.59063z"/>
                    </g>
                </g>
                <g fill="#14b6b9">
                    <g>
                        <path d="M186.96295,208.25196c-0.03937,-0.03938 -0.07875,-0.07875 -0.11812,-0.11813c-0.51188,-0.43313 -0.74813,-0.90562 -0.7875,-1.4175c-2.91375,-3.18937 -6.49687,-5.39437 -10.43437,-7.28438c-2.6775,-1.26 -5.59125,-2.63812 -7.63875,-4.76437c-3.465,4.29188 -9.56813,5.94563 -14.72625,7.36312c-5.31563,1.49625 -10.82812,2.59875 -16.34063,2.95313c-9.01687,0.63 -20.39625,-0.63 -25.2,-8.89875c-3.03188,4.13438 -7.875,6.81188 -12.4425,9.09563c-6.65438,3.3075 -13.7025,5.86687 -20.04187,9.84375c-0.07875,0.03938 -0.1575,0.07875 -0.23625,0.11812c0.03938,0.1575 0.11813,0.315 0.19688,0.4725c0.66938,1.49625 2.16562,2.12625 3.6225,2.71687c5.00062,2.00813 10.5525,1.89 15.82875,1.92937c11.77313,0.07875 23.625,-0.63 35.35875,-1.7325c11.69438,-1.14187 23.4675,-2.205 35.08312,-3.85875c4.48875,-0.63 9.68625,-0.86625 13.50563,-2.63812c1.29937,-0.59063 2.71687,-1.37813 3.74062,-2.40188c0.63,-0.63 1.14187,-0.86625 0.63,-1.37812z"/>
                    </g>
                </g>
                <g fill="#fcbf95">
                    <g>
                        <path d="M88.95857,116.94134c-0.51188,-4.76437 -1.1025,-9.52875 -1.65375,-14.29313c-0.11813,-0.03937 -0.27563,-0.07875 -0.39375,-0.11813c-0.43313,-0.1575 -1.14187,-0.27563 -1.45687,-0.27563c-0.51188,0.03938 -0.43313,-0.03937 -0.945,0.39375c-0.11812,0.07875 -0.03937,0 -0.35437,0.39375c-0.35438,0.43313 -0.07875,0 -0.35438,0.55125c-0.35438,0.66938 -0.51188,1.06312 -0.63,1.575c-0.945,3.66188 -0.70875,7.63875 -0.1575,11.34c0.59063,3.9375 1.575,7.91437 3.34687,11.4975c0.63,1.22063 1.37813,2.40187 2.28375,3.11062c0.315,0.23625 0.4725,0.315 0.74813,0.35437c-0.07875,0 0.07875,-0.03937 0.03937,0c0.1575,-0.03937 0.315,-0.11812 0.51188,-0.19688c0.07875,-0.03938 0.1575,-0.07875 0.23625,-0.07875c-0.43313,-4.76438 -0.74813,-9.52875 -1.22063,-14.25375z"/>
                    </g>
                </g>
                <g fill="#f6851f">
                    <g>
                        <path d="M183.30107,58.54821c-4.96125,-8.42625 -12.6,-14.56875 -21.77438,-17.83688c-7.83562,-2.79562 -16.34062,-3.6225 -24.60937,-3.15c-8.82,0.51188 -17.955,2.16562 -25.9875,5.985c-8.89875,4.29187 -16.8525,11.1825 -21.77438,19.76625c-6.1425,10.67063 -6.41813,22.44375 -3.54375,34.13813c0.03937,0.19687 0.07875,0.35438 0.07875,0.55125c0.39375,0 0.74812,0.03937 1.14187,0.07875c-0.1575,-1.61437 -0.315,-3.26812 -0.43312,-4.92187l0.59062,0.07875c0.03938,-0.11813 0.07875,-0.23625 0.1575,-0.35438c3.3075,-6.37875 9.37125,-10.35563 13.19063,-16.30125c1.77187,-2.79562 3.07125,-5.74875 4.60687,-8.70187c1.18125,-2.28375 2.79563,-4.725 5.15812,-5.94563c4.29188,-2.24438 8.85938,-1.49625 12.63938,1.37812c3.6225,2.75625 6.81188,7.83563 11.655,8.30813c4.5675,0.4725 8.70188,-3.03187 12.00937,-5.67c3.34688,-2.63813 7.0875,-6.1425 11.61563,-6.18188c8.26875,-0.07875 12.48188,8.505 15.86812,14.76563c4.01625,7.36312 10.43438,14.09625 10.78875,22.64063c0.51187,-0.1575 1.02375,-0.23625 1.575,-0.27563c1.33875,-13.0725 4.095,-26.3025 -2.95312,-38.35125z"/>
                    </g>
                </g>
                <g fill="#fcbf95">
                    <g>
                        <path d="M190.0342,107.13696c-0.19688,-1.77187 -0.43312,-3.85875 -1.65375,-5.27625c-0.7875,-0.90563 -2.08687,-0.74812 -3.18938,-0.23625c-0.19688,8.58375 -1.4175,17.04938 -2.71687,25.515c5.47312,2.6775 7.4025,-7.44187 7.83562,-11.14312c0.35438,-2.87437 0.07875,-5.90625 -0.27562,-8.85937z"/>
                    </g>
                </g>
                <g fill="#000000">
                    <g>
                        <path d="M176.44982,162.61634c3.38625,-8.93813 3.465,-18.78188 4.8825,-28.11375c0.1575,-0.945 0.27562,-1.92937 0.43312,-2.87438c8.30813,3.07125 12.1275,-8.93812 12.83625,-15.435c0.4725,-4.13438 0.07875,-8.6625 -0.86625,-12.71812c-0.4725,-2.16563 -1.575,-4.13438 -3.3075,-5.43375c1.14188,-11.37937 3.54375,-22.8375 0,-34.05937c-2.6775,-8.46562 -8.58375,-16.10437 -15.75,-21.22313c-13.78125,-9.88312 -32.05125,-11.10375 -48.31312,-8.26875c-13.86,2.40188 -26.38125,8.505 -35.67375,19.25437c-5.04,5.8275 -8.74125,12.79688 -10.395,20.35688c-1.85063,8.22938 -0.82688,16.81313 1.18125,24.92438c0.03937,0.19688 0.11813,0.35438 0.19687,0.51188c-0.86625,0.70875 -1.61437,1.69312 -2.12625,2.95313c-1.81125,4.33125 -1.49625,9.52875 -0.90562,14.05687c0.66937,4.8825 1.92937,9.765 4.2525,14.09625c1.45687,2.71687 4.33125,5.94562 7.63875,5.00062c0.4725,4.52812 1.14188,9.05625 2.28375,13.46625c2.3625,9.09562 6.65438,17.71875 13.15125,24.60938c0.7875,0.82688 1.575,1.61437 2.44125,2.3625c1.33875,2.28375 1.37812,5.1975 1.4175,7.79625c0.03937,2.40188 -0.11813,4.80375 -0.19688,7.20562c-2.52,5.74875 -8.82,8.6625 -14.21438,11.26125c-5.15812,2.44125 -10.47375,4.60688 -15.47437,7.32375c-0.27562,-0.07875 -0.55125,-0.1575 -0.86625,-0.11813c-3.97688,0.19688 -5.15813,3.85875 -4.05563,7.20562c1.33875,4.095 5.70937,5.67 9.52875,6.73313c5.59125,1.53562 11.85187,1.22062 17.56125,1.18125c6.41812,-0.03938 12.87562,-0.35438 19.29375,-0.70875c12.7575,-0.74813 25.47563,-2.40188 38.19375,-3.78c6.3,-0.66938 12.56062,-1.33875 18.78188,-2.48063c3.66187,-0.66938 6.93,-1.7325 9.9225,-3.97688c2.24437,-1.69313 3.89812,-4.41 2.91375,-6.7725c0,-0.39375 -0.11813,-0.7875 -0.35438,-1.1025c-2.79563,-3.54375 -6.1425,-6.3 -10.08,-8.505c-3.42562,-1.92937 -9.48937,-3.38625 -10.94625,-7.52062c-0.11812,-0.315 -0.23625,-0.55125 -0.43312,-0.74813c-0.03938,-0.66938 -0.315,-1.14187 -0.74812,-1.4175c-0.03938,-0.07875 -0.03938,-0.1575 -0.07875,-0.19688c-0.43312,-1.49625 -0.82687,-2.9925 -1.18125,-4.48875c-0.43313,-1.92937 -1.02375,-4.48875 -0.55125,-6.57563c4.29187,-3.70125 7.52062,-8.22938 9.6075,-13.78125zM188.38045,101.90009c1.22063,1.37812 1.45687,3.50437 1.65375,5.27625c0.35438,2.91375 0.63,5.985 0.27562,8.89875c-0.43312,3.66188 -2.3625,13.78125 -7.83562,11.14312c1.29938,-8.46562 2.55938,-16.97062 2.71687,-25.515c1.1025,-0.55125 2.40188,-0.70875 3.18938,0.19688zM89.90357,131.23446c-0.1575,0.07875 -0.315,0.11812 -0.51188,0.19687c0.03938,-0.03938 -0.07875,0 -0.03937,0c-0.27562,-0.03938 -0.39375,-0.07875 -0.74813,-0.35438c-0.90562,-0.70875 -1.65375,-1.89 -2.28375,-3.11062c-1.77187,-3.54375 -2.79563,-7.56 -3.34687,-11.4975c-0.55125,-3.74062 -0.7875,-7.67812 0.1575,-11.34c0.11813,-0.4725 0.27563,-0.90563 0.63,-1.575c0.27562,-0.51188 0,-0.07875 0.35437,-0.55125c0.315,-0.39375 0.27563,-0.315 0.35438,-0.39375c0.51188,-0.39375 0.43313,-0.315 0.945,-0.39375c0.315,-0.03937 1.02375,0.07875 1.45687,0.27563c0.11813,0.03937 0.27563,0.07875 0.39375,0.11812c0.55125,4.76438 1.14187,9.52875 1.65375,14.29313c0.51188,4.725 0.7875,9.45 1.18125,14.21437c-0.03937,0.07875 -0.11812,0.07875 -0.19687,0.11813zM87.10795,92.96196c-0.07875,0.11813 -0.11813,0.23625 -0.1575,0.35438l-0.59063,-0.07875c0.11812,1.65375 0.27562,3.26812 0.43312,4.92188c-0.39375,-0.03938 -0.7875,-0.07875 -1.14187,-0.07875c0,-0.1575 -0.03937,-0.35438 -0.07875,-0.55125c-2.87438,-11.73375 -2.55938,-23.50687 3.54375,-34.13812c4.96125,-8.58375 12.87563,-15.51375 21.77437,-19.76625c8.0325,-3.85875 17.1675,-5.47313 25.9875,-5.985c8.26875,-0.4725 16.77375,0.315 24.60938,3.15c9.17437,3.26812 16.81312,9.41063 21.77438,17.83688c7.04812,12.04875 4.29187,25.27875 2.95313,38.39063c-0.51188,0.03937 -1.06313,0.1575 -1.575,0.27562c-0.35437,-8.54437 -6.7725,-15.2775 -10.78875,-22.64062c-3.38625,-6.26062 -7.59938,-14.805 -15.86812,-14.76562c-4.5675,0.03937 -8.26875,3.54375 -11.61562,6.18188c-3.34688,2.63813 -7.48125,6.1425 -12.00938,5.67c-4.84313,-0.4725 -8.0325,-5.59125 -11.655,-8.30813c-3.78,-2.87438 -8.38687,-3.6225 -12.63937,-1.37813c-2.3625,1.22063 -3.97688,3.66188 -5.15812,5.94563c-1.53563,2.91375 -2.79563,5.90625 -4.60688,8.70188c-3.81938,5.90625 -9.88313,9.88313 -13.19062,16.26188zM167.9842,194.66759c2.08688,2.12625 5.00062,3.50437 7.63875,4.76438c3.9375,1.89 7.52062,4.095 10.43437,7.28438c0.03938,0.51187 0.23625,1.02375 0.7875,1.4175c0.03937,0.03937 0.07875,0.07875 0.11812,0.11812c0.51188,0.4725 0,0.70875 -0.63,1.37813c-1.02375,1.02375 -2.44125,1.77187 -3.74062,2.40188c-3.81937,1.77187 -9.01687,1.96875 -13.50563,2.63813c-11.61562,1.69313 -23.38875,2.75625 -35.08312,3.85875c-11.73375,1.14187 -23.58562,1.85062 -35.35875,1.7325c-5.27625,-0.03937 -10.82812,0.03938 -15.82875,-1.92937c-1.45687,-0.59063 -2.95312,-1.22063 -3.6225,-2.71688c-0.07875,-0.1575 -0.11812,-0.315 -0.19687,-0.4725c0.07875,-0.03937 0.1575,-0.07875 0.23625,-0.11812c6.33938,-3.97688 13.34812,-6.53625 20.04188,-9.84375c4.5675,-2.28375 9.41063,-4.96125 12.4425,-9.09563c4.80375,8.30813 16.18312,9.52875 25.2,8.89875c5.5125,-0.39375 11.025,-1.45688 16.34063,-2.95312c5.15812,-1.4175 11.26125,-3.07125 14.72625,-7.36313zM114.07982,180.25634c4.84313,2.95313 10.2375,4.725 16.14375,5.43375c9.2925,1.14187 18.97875,-0.51188 27.5625,-4.05563c1.65375,-0.66938 3.22875,-1.45687 4.725,-2.3625c0.07875,0.7875 0.19688,1.53562 0.27562,2.24437c0.27562,1.77188 0.70875,3.50437 1.18125,5.23688c0.315,1.14187 1.14187,2.87437 1.14187,3.9375c0,0.19687 0.03938,0.35437 0.07875,0.51187c-0.03938,0.03938 -0.07875,0.07875 -0.11812,0.1575c-1.575,2.63813 -4.84313,3.78 -7.56,4.725c-1.96875,0.70875 -3.97688,1.33875 -6.02437,1.92937c-4.5675,1.29937 -9.2925,2.12625 -14.0175,2.55937c-8.30812,0.74813 -20.23875,0.23625 -23.11312,-9.37125c-0.07875,-0.27563 -0.19687,-0.51188 -0.35438,-0.74813c0.07875,-3.22875 0.43313,-6.81187 0.07875,-10.19813zM165.54295,171.83009c-0.74812,-0.03937 -1.49625,0.27563 -1.96875,1.1025c-0.1575,0.27562 -0.315,0.59062 -0.43313,0.86625c-1.26,0.90563 -2.59875,1.7325 -4.01625,2.48063c-8.22937,4.33125 -17.91563,5.94563 -27.12938,5.27625c-7.79625,-0.59062 -14.56875,-3.465 -20.3175,-8.42625c-0.19688,-0.23625 -0.39375,-0.39375 -0.59063,-0.55125c-0.63,-0.59063 -1.26,-1.18125 -1.89,-1.81125c-6.22125,-6.37875 -10.04062,-14.6475 -12.24562,-23.19187c-2.52,-9.80437 -2.55938,-20.08125 -3.58313,-30.0825c-0.63,-6.02438 -1.49625,-12.00938 -2.0475,-18.03375c-0.11813,-1.4175 -0.27562,-2.835 -0.43313,-4.29188c0.03938,-0.07875 0.11813,-0.1575 0.1575,-0.27562c2.63812,-5.04 7.12687,-8.46563 10.67062,-12.79687c3.3075,-4.01625 5.15812,-8.6625 7.63875,-13.15125c2.32312,-4.17375 6.69375,-5.07938 10.5525,-2.32313c4.01625,2.835 6.73312,7.20562 11.57625,8.82c4.48875,1.49625 8.85938,-0.03937 12.71813,-2.44125c3.97687,-2.48063 7.28437,-6.41813 11.61562,-8.26875c7.56,-3.26813 12.20625,8.0325 14.9625,13.03312c3.74062,6.85125 10.82813,13.50563 9.52875,22.01063c-0.11812,0.7875 0.1575,1.4175 0.59063,1.85062c-0.1575,7.52062 -1.18125,15.08063 -2.28375,22.5225c-0.7875,5.27625 -1.69313,10.5525 -2.32312,15.86813c-0.55125,4.76438 -1.02375,9.56813 -1.96875,14.25375c-0.945,4.5675 -2.40188,9.01688 -4.92187,12.95438c-1.14188,1.77187 -2.40188,3.26812 -3.85875,4.60687z"/>
                    </g>
                </g>
                <g fill="#000000">
                    <g>
                        <path d="M136.56295,142.69259l-1.06312,-1.29937c-0.51188,-0.63 -1.14187,-0.82688 -1.77187,-0.74812c-1.26,-1.53562 -1.77187,-3.78 -2.12625,-5.67c-0.59063,-3.465 -0.39375,-7.04812 -0.11813,-10.51312c0.315,-3.81937 0.7875,-7.59937 0.98438,-11.45812c0.1575,-3.54375 0.39375,-7.0875 0.74812,-10.63125c0.315,-2.75625 -4.01625,-2.87438 -4.33125,-0.11813l-0.03938,0.43313c0,0.03937 0,0.07875 0,0.1575c-0.39375,3.81938 -0.59063,7.59938 -0.7875,11.45813c-0.19687,4.095 -0.82688,8.11125 -1.06312,12.20625c-0.39375,6.93 -0.11813,16.49812 7.28438,19.72688c2.16563,0.90562 3.465,-2.0475 2.28375,-3.54375z"/>
                    </g>
                </g>
                <g fill="#000000">
                    <g>
                        <path d="M139.3192,160.41134c-2.32313,2.52 -7.63875,-0.43312 -10.27688,-1.22062c-2.6775,-0.7875 -3.9375,3.34688 -1.26,4.13437c4.41,1.26 10.67063,4.37063 14.49,0.23625c1.85063,-2.00813 -1.06313,-5.1975 -2.95312,-3.15z"/>
                    </g>
                </g>
                <g fill="#000000">
                    <g>
                        <path d="M165.4642,103.43571c-0.63,-1.18125 -1.45687,-2.16563 -2.40188,-3.03187c-1.18125,-1.1025 -2.55937,-1.96875 -4.095,-2.24437c-3.9375,-1.22063 -8.46563,-0.51188 -11.4975,2.52c-1.96875,1.96875 0.98438,5.15813 2.91375,3.18938c0.19688,-0.19687 0.43313,-0.39375 0.63,-0.55125c-0.07875,0.315 -0.11813,0.63 -0.1575,0.945c-0.23625,2.63813 1.575,5.355 4.21312,5.74875c2.87438,0.43312 5.43375,-2.0475 5.78813,-4.76438c0.03937,-0.27562 0.03937,-0.55125 0.03937,-0.7875c0.23625,0.315 0.4725,0.66937 0.70875,1.02375c1.49625,2.32313 5.15813,0.43313 3.85875,-2.0475z"/>
                    </g>
                </g>
                <g fill="#000000">
                    <g>
                        <path d="M121.2067,102.76634c-2.08688,-9.37125 -12.63937,-7.36312 -18.9,-3.70125c-2.40188,1.4175 -0.39375,5.23688 2.0475,3.81937c0.70875,-0.39375 1.53563,-0.86625 2.44125,-1.26c-0.27563,2.08688 -0.11813,4.29188 1.4175,5.74875c1.77188,1.65375 4.21312,1.53563 6.3,0.55125c1.33875,-0.63 2.52,-1.7325 3.15,-3.07125c1.33875,1.22063 4.05562,0.1575 3.54375,-2.08687z"/>
                    </g>
                </g>
            </g>
        </g>
        <path d="M126,252c-69.58788,0 -126,-56.41212 -126,-126v0c0,-69.58788 56.41212,-126 126,-126v0c69.58788,0 126,56.41212 126,126v0c0,69.58788 -56.41212,126 -126,126z"
              fill="none"/>
        <path d="M126,246.96c-66.80436,0 -120.96,-54.15564 -120.96,-120.96v0c0,-66.80436 54.15564,-120.96 120.96,-120.96h0c66.80436,0 120.96,54.15564 120.96,120.96v0c0,66.80436 -54.15564,120.96 -120.96,120.96z"
              fill="none"/>
    </g>
</svg>